<?xml version="1.0" encoding="utf-8"?>
<!-- Uploaded to: SVG Repo, www.svgrepo.com, Generator: SVG Repo Mixer Tools -->
<svg fill="#000000" width="800px" height="800px" viewBox="0 0 32 32" version="1.1" xmlns="http://www.w3.org/2000/svg">
<title>inkscape</title>
<path d="M25.431 25.209c-1.263 1.135 0.142 2.284 1.388 1.552 0.277-0.281-0.008-1.27-1.387-1.552zM7.296 27.041c0.98 0.849 2.496-0.211 2.949-1.395-0.95-1.262-4.507 0.046-2.949 1.395zM25.951 24.054c0 0.562 4.141 0.931 4.141-0.132-0.397-0.733-1.16-1.222-2.038-1.222-0.929 0-1.731 0.549-2.097 1.34l-0.006 0.014zM13.233 2.216l-11.072 11.329c-3.74 4.632 2.547 4.094 5.241 5.427 0.967 0.988-3.705 1.718-2.738 2.707 0.966 0.988 5.846 1.904 6.814 2.892 0.966 0.988-1.979 2.037-1.012 3.024 0.966 0.99 3.203 0.052 3.621 2.334 0.297 1.63 4.029 0.7 5.853-0.635 0.967-0.988-1.849-0.896-0.882-1.884 2.403-2.458 4.642-0.892 5.465-3.357 0.406-1.217-3.539-1.876-2.571-2.864 2.782-1.625 12.395-2.682 7.833-7.243l-11.474-11.73c-0.659-0.629-1.554-1.016-2.539-1.016s-1.88 0.387-2.54 1.017l0.001-0.001zM17.641 3.012l4.38 4.449c0.207 0.229 0.333 0.533 0.333 0.868 0 0.226-0.058 0.438-0.159 0.623l0.003-0.007-2.174-1.739-0.427 2.576-1.818-0.959-2.909 1.837-0.963-3.874-1.563 2.704h-2.391c-0.975 0-1.088-1.237-0.204-2.122 1.546-1.668 3.32-3.369 4.285-4.355 0.466-0.453 1.102-0.732 1.804-0.732s1.338 0.279 1.804 0.733l-0.001-0.001zM10.584 19.588c0.296 0.184 4.771 1.093 5.865 1.275 0.379 0.080 0.11 0.47-0.412 0.734-1.178 0.314-6.894-2.008-5.452-2.008z"></path>
</svg>