<?xml version="1.0" encoding="utf-8"?>
<!-- Uploaded to: SVG Repo, www.svgrepo.com, Generator: SVG Repo Mixer Tools -->
<svg fill="#000000" version="1.1" id="Layer_1" xmlns="http://www.w3.org/2000/svg" xmlns:xlink="http://www.w3.org/1999/xlink" 
	 width="800px" height="800px" viewBox="0 0 256 240" enable-background="new 0 0 256 240" xml:space="preserve">
<path d="M84.635,20.256c18.383,0,33.286,14.903,33.286,33.286s-14.903,33.286-33.286,33.286S51.349,71.925,51.349,53.542
	S66.251,20.256,84.635,20.256z M31.002,145.011c0-2.499,1.606-4.194,4.194-4.194s4.194,1.606,4.194,4.194v92.986h91.469v-92.986
	c0-2.499,1.606-4.194,4.194-4.194c2.499,0,4.194,1.606,4.194,4.194v92.986h29.092V136.623c0-22.934-18.74-41.585-41.585-41.585
	h-8.388l-24.451,38.015l-2.945-28.467l4.016-9.638H76.96l4.016,9.638l-3.123,28.645L53.401,95.038h-9.816
	C20.651,95.038,2,113.778,2,136.623v101.375h29.092v-92.986H31.002z M208.346,99.339c26.892-1.632,47.333-24.793,45.545-51.685
	c-1.632-26.892-24.716-47.333-51.607-45.545c-26.892,1.554-47.333,24.716-45.623,51.607
	C158.293,80.53,181.454,100.893,208.346,99.339z M194.434,40.659c-1.399-2.643,2.487-4.119,4.508-6.062
	c2.487-2.643,7.85-6.995,7.228-8.627c-0.622-1.71-6.062-6.606-9.093-5.441c-0.622,0-4.119,3.886-4.819,4.508
	c0-1.399-0.233-2.098-0.233-3.342c0-0.855-1.71-1.632-1.632-2.254c0.155-1.477,3.886-4.352,4.741-5.441
	c-0.777-0.466-3.264-2.254-3.886-2.021c-1.632,0.855-3.575,1.477-5.363,2.254c0-0.622-0.155-1.244-0.233-1.632
	c3.342-1.71,6.995-2.953,10.726-3.886l3.342,1.244l2.487,2.643l2.487,2.332c0,0,1.477,0.622,2.098,0.622
	c0.777-0.155,3.109-3.264,3.109-3.264l-1.01-2.332l-0.155-2.098c6.684,0.622,12.98,2.643,18.576,6.062
	c-0.855,0.155-2.098,0.233-3.264,0.622c-0.466-0.233-3.109,0.233-2.953,1.399c0.155,0.855,4.741,4.586,6.684,7.85
	c2.021,3.342,7.617,5.441,8.627,9.249c1.01,4.352-0.622,9.948,0.155,15.156c0.777,5.13,6.373,10.492,6.373,10.492
	s2.487,0.777,4.508,0.233c-1.477,7.617-4.819,14.534-10.104,20.519c-5.829,6.606-13.213,11.192-21.529,13.213
	c1.01-2.953,2.953-5.829,4.819-7.461c1.632-1.477,3.575-4.119,4.352-6.062c0.777-2.098,1.71-3.886,2.953-5.829
	c1.477-2.643-4.586-6.373-6.606-6.995c-4.508-1.632-7.85-3.886-11.736-6.373c-2.876-1.71-11.425,2.254-14.689,1.01
	c-4.352-1.632-5.829-2.953-9.715-5.441c-3.964-2.643-2.876-8.239-3.109-12.358c2.953,0,7.073-1.244,9.249,1.01
	c0.622,0.777,2.953,3.886,4.352,2.643C197.154,45.244,194.9,41.514,194.434,40.659z M170.496,25.348
	c0.233,2.098,1.399,3.731,1.399,5.207c0,5.829-0.466,9.327,3.264,13.912c1.477,1.71,2.021,4.508,2.643,6.684
	c0.777,2.098,3.264,3.109,5.13,4.352c3.575,2.332,7.073,5.363,10.959,7.461c2.487,1.399,3.964,2.098,3.575,5.13
	c-0.466,2.332-0.466,3.886-1.632,6.062c-0.233,0.777,1.71,4.741,2.332,5.207c2.021,1.632,3.886,3.264,5.985,4.741
	c3.264,2.332,0,5.829-1.244,9.482c-9.482-0.622-18.576-4.352-25.881-10.726c-8.627-7.617-13.679-18.187-14.456-29.534
	C161.791,43.068,164.278,33.431,170.496,25.348z"/>
</svg>