<?xml version="1.0" encoding="utf-8"?>

<!DOCTYPE svg PUBLIC "-//W3C//DTD SVG 1.1//EN" "http://www.w3.org/Graphics/SVG/1.1/DTD/svg11.dtd">
<!-- Uploaded to: SVG Repo, www.svgrepo.com, Generator: SVG Repo Mixer Tools -->
<svg version="1.1" id="_x32_" xmlns="http://www.w3.org/2000/svg" xmlns:xlink="http://www.w3.org/1999/xlink" 
	 width="800px" height="800px" viewBox="0 0 512 512"  xml:space="preserve">
<style type="text/css">
<![CDATA[
	.st0{fill:#000000;}
]]>
</style>
<g>
	<path class="st0" d="M262.448,267.438c2.359-0.188,4.188-2.156,4.188-4.531v-10.813c0-2.375-1.828-4.344-4.188-4.531l-14.359-1.125
		c-0.906-0.063-1.703-0.656-2.047-1.5l-4.719-11.391c-0.344-0.828-0.203-1.797,0.391-2.5l9.359-10.938
		c1.547-1.797,1.438-4.484-0.234-6.172l-7.656-7.656c-1.688-1.672-4.375-1.781-6.172-0.234l-10.938,9.359
		c-0.688,0.594-1.656,0.75-2.5,0.406l-11.391-4.75c-0.844-0.344-1.422-1.125-1.5-2.031l-1.109-14.344
		c-0.188-2.375-2.172-4.188-4.531-4.188h-10.828c-2.375,0-4.344,1.813-4.531,4.188l-1.125,14.344
		c-0.063,0.906-0.641,1.688-1.484,2.031l-11.391,4.75c-0.844,0.344-1.813,0.188-2.5-0.406l-10.953-9.359
		c-1.797-1.547-4.484-1.438-6.156,0.234l-7.656,7.656c-1.672,1.688-1.781,4.375-0.25,6.172l9.359,10.938
		c0.594,0.703,0.75,1.672,0.391,2.5l-4.719,11.391c-0.344,0.844-1.141,1.438-2.047,1.5l-14.344,1.125
		c-2.359,0.188-4.188,2.156-4.188,4.531v10.813c0,2.375,1.828,4.344,4.188,4.531l14.344,1.125c0.906,0.063,1.703,0.656,2.047,1.5
		l4.719,11.375c0.359,0.844,0.203,1.813-0.391,2.516l-9.359,10.938c-1.531,1.797-1.422,4.484,0.25,6.156l7.656,7.672
		c1.672,1.672,4.359,1.766,6.156,0.219l10.953-9.344c0.688-0.594,1.656-0.75,2.5-0.406l11.391,4.734
		c0.844,0.328,1.422,1.141,1.484,2.047l1.125,14.344c0.188,2.375,2.156,4.188,4.531,4.188h10.828c2.359,0,4.344-1.813,4.531-4.188
		l1.109-14.344c0.078-0.906,0.656-1.719,1.5-2.047l11.391-4.734c0.844-0.344,1.813-0.188,2.5,0.406l10.938,9.344
		c1.797,1.547,4.484,1.453,6.172-0.219l7.656-7.672c1.672-1.672,1.781-4.359,0.234-6.156l-9.359-10.938
		c-0.578-0.703-0.734-1.672-0.391-2.516l4.719-11.375c0.344-0.844,1.141-1.438,2.047-1.5L262.448,267.438z M199.62,280.156
		c-6.047,0-11.734-2.375-16.016-6.641c-4.281-4.281-6.625-9.953-6.625-16.016c0-6.047,2.344-11.75,6.625-16.016
		c4.281-4.297,9.969-6.641,16.016-6.641s11.75,2.344,16.016,6.641c4.281,4.266,6.641,9.969,6.641,16.016
		c0,6.063-2.359,11.734-6.641,16.016C211.37,277.781,205.667,280.156,199.62,280.156z"/>
	<path class="st0" d="M352.823,197.391c1.906-0.156,3.375-1.734,3.375-3.656v-8.719c0-1.922-1.469-3.5-3.375-3.656l-11.563-0.891
		c-0.734-0.063-1.359-0.531-1.641-1.219l-3.813-9.172c-0.281-0.672-0.156-1.453,0.313-2.016l7.547-8.813
		c1.234-1.453,1.156-3.625-0.188-4.969l-6.172-6.172c-1.359-1.359-3.516-1.438-4.969-0.203l-8.828,7.547
		c-0.547,0.484-1.328,0.609-2,0.328l-9.188-3.813c-0.672-0.281-1.141-0.922-1.203-1.656l-0.891-11.547
		c-0.156-1.922-1.75-3.391-3.656-3.391h-8.734c-1.906,0-3.5,1.469-3.641,3.391l-0.906,11.547c-0.047,0.75-0.516,1.375-1.203,1.656
		l-9.172,3.813c-0.688,0.281-1.453,0.156-2.016-0.328l-8.813-7.547c-1.453-1.234-3.625-1.156-4.969,0.203l-6.172,6.172
		c-1.344,1.344-1.438,3.516-0.188,4.969l7.531,8.813c0.469,0.563,0.594,1.344,0.313,2.016l-3.797,9.172
		c-0.281,0.688-0.922,1.156-1.656,1.219l-11.563,0.891c-1.906,0.156-3.375,1.734-3.375,3.656v8.719c0,1.922,1.469,3.5,3.375,3.656
		l11.563,0.891c0.734,0.063,1.375,0.531,1.656,1.219l3.797,9.172c0.281,0.672,0.156,1.453-0.313,2.016l-7.531,8.813
		c-1.25,1.453-1.156,3.625,0.188,4.969l6.172,6.156c1.344,1.375,3.516,1.438,4.969,0.203l8.813-7.547
		c0.563-0.469,1.328-0.594,2.016-0.313l9.172,3.813c0.688,0.281,1.156,0.906,1.203,1.656l0.906,11.547
		c0.141,1.922,1.734,3.391,3.641,3.391h8.734c1.906,0,3.5-1.469,3.656-3.391l0.891-11.547c0.063-0.75,0.531-1.375,1.203-1.656
		l9.188-3.813c0.672-0.281,1.453-0.156,2,0.313l8.828,7.547c1.453,1.234,3.609,1.172,4.969-0.203l6.172-6.156
		c1.344-1.344,1.422-3.516,0.188-4.969l-7.547-8.813c-0.469-0.563-0.594-1.344-0.313-2.016l3.813-9.172
		c0.281-0.688,0.906-1.156,1.641-1.219L352.823,197.391z M302.214,207.625c-4.875,0-9.469-1.906-12.906-5.344
		c-3.453-3.453-5.344-8.031-5.344-12.906s1.891-9.469,5.344-12.906c3.438-3.453,8.031-5.344,12.906-5.344s9.453,1.891,12.906,5.344
		c3.438,3.438,5.344,8.031,5.344,12.906s-1.906,9.453-5.344,12.906C311.667,205.719,307.089,207.625,302.214,207.625z"/>
	<path class="st0" d="M241.167,159.422c1.844,0.516,3.781-0.484,4.422-2.266l3.016-8.188c0.656-1.813-0.172-3.797-1.922-4.594
		l-10.547-4.844c-0.656-0.281-1.094-0.938-1.125-1.688l-0.422-9.938c-0.031-0.719,0.344-1.406,1-1.781l10.109-5.672
		c1.672-0.922,2.328-2.984,1.531-4.734l-3.672-7.906c-0.797-1.75-2.813-2.563-4.594-1.906l-10.875,4.047
		c-0.688,0.266-1.469,0.109-2-0.391l-7.313-6.719c-0.547-0.5-0.75-1.266-0.563-1.969l3.141-11.156
		c0.516-1.844-0.469-3.781-2.266-4.438l-8.203-3c-1.781-0.656-3.781,0.172-4.578,1.906l-4.828,10.531
		c-0.297,0.688-0.953,1.125-1.703,1.156l-9.922,0.406c-0.734,0.031-1.422-0.344-1.781-1l-5.688-10.094
		c-0.922-1.688-2.984-2.344-4.719-1.531l-7.922,3.656c-1.734,0.813-2.563,2.813-1.891,4.594l4.047,10.875
		c0.25,0.688,0.094,1.469-0.406,2l-6.719,7.313c-0.5,0.547-1.266,0.75-1.969,0.563l-11.172-3.125
		c-1.828-0.531-3.766,0.469-4.422,2.266l-3,8.172c-0.656,1.813,0.172,3.813,1.906,4.594l10.547,4.828
		c0.672,0.297,1.109,0.953,1.141,1.703l0.406,9.938c0.031,0.719-0.344,1.406-0.984,1.781l-10.109,5.672
		c-1.672,0.922-2.344,3-1.531,4.734l3.672,7.906c0.797,1.75,2.797,2.563,4.594,1.906l10.875-4.063c0.688-0.25,1.453-0.094,2,0.406
		l7.297,6.734c0.547,0.484,0.766,1.266,0.563,1.953l-3.125,11.156c-0.516,1.844,0.469,3.781,2.25,4.438l8.203,3.016
		c1.781,0.641,3.797-0.172,4.594-1.922l4.813-10.547c0.313-0.672,0.969-1.109,1.703-1.141l9.922-0.406
		c0.734-0.031,1.422,0.344,1.781,0.984l5.688,10.125c0.938,1.672,3,2.328,4.734,1.516l7.906-3.656
		c1.75-0.813,2.563-2.813,1.906-4.594l-4.047-10.875c-0.25-0.688-0.109-1.469,0.391-2l6.734-7.313c0.5-0.547,1.25-0.75,1.969-0.563
		L241.167,159.422z M190.12,151.609c-4.578-1.688-8.234-5.047-10.266-9.453c-2.063-4.438-2.266-9.391-0.578-13.969
		c1.672-4.578,5.031-8.219,9.453-10.281s9.375-2.25,13.969-0.563c4.563,1.672,8.219,5.031,10.266,9.453s2.25,9.375,0.578,13.953
		c-1.688,4.578-5.031,8.219-9.469,10.281C199.651,153.078,194.698,153.281,190.12,151.609z"/>
	<path class="st0" d="M483.073,344.109l-44.938-150.703l-0.266,0.813C432.354,86.031,342.886,0,233.339,0
		C120.229,0,28.526,91.688,28.526,204.797v73.953c0,47.109,15.953,90.469,42.688,125.063V512h239.844v-43.75
		c49.109-20.172,88.625-58.859,109.891-107.375l53.641-4.359c2.906-0.234,5.547-1.766,7.203-4.172
		C483.433,349.922,483.901,346.906,483.073,344.109z M233.323,358.391c-84.688,0-153.594-68.906-153.594-153.594
		S148.636,51.203,233.339,51.203c84.688,0,153.594,68.906,153.594,153.594S318.026,358.391,233.323,358.391z"/>
</g>
</svg>